<mxfile host="app.diagrams.net" agent="Mozilla/5.0 (Windows NT 10.0; Win64; x64) AppleWebKit/537.36 (KHTML, like Gecko) Chrome/130.0.0.0 Safari/537.36" border="50" scale="3" compressed="false" locked="false" version="24.7.17">
  <diagram name="Blank" id="YmL12bMKpDGza6XwsDPr">
    <mxGraphModel dx="3509" dy="718" grid="0" gridSize="10" guides="1" tooltips="1" connect="1" arrows="1" fold="1" page="0" pageScale="1" pageWidth="827" pageHeight="1169" background="none" math="1" shadow="0">
      <root>
        <mxCell id="X5NqExCQtvZxIxQ7pmgY-0" />
        <mxCell id="1" parent="X5NqExCQtvZxIxQ7pmgY-0" />
        <mxCell id="TkOwXYtEwUb_VDzXQRJP-3" value="&lt;div&gt;&lt;span style=&quot;background-color: initial;&quot;&gt;Services&lt;/span&gt;&lt;/div&gt;&lt;div&gt;&lt;span style=&quot;background-color: initial;&quot;&gt;Seamless Callback&lt;/span&gt;&lt;/div&gt;&lt;div&gt;End-of-call Notifier&lt;/div&gt;&lt;div&gt;Mobile Beep Call&lt;/div&gt;&lt;div&gt;Missed Call Notification&lt;/div&gt;&lt;div&gt;...&lt;/div&gt;" style="rounded=1;whiteSpace=wrap;html=1;align=left;" vertex="1" parent="1">
          <mxGeometry x="-430" y="883" width="131" height="101" as="geometry" />
        </mxCell>
        <mxCell id="TkOwXYtEwUb_VDzXQRJP-4" value="Network Browser (TAS)" style="swimlane;whiteSpace=wrap;html=1;" vertex="1" parent="1">
          <mxGeometry x="-461" y="827" width="200" height="200" as="geometry" />
        </mxCell>
        <mxCell id="TkOwXYtEwUb_VDzXQRJP-7" value="Signaling gateways (SGW)" style="swimlane;whiteSpace=wrap;html=1;" vertex="1" parent="1">
          <mxGeometry x="-730" y="830" width="200" height="200" as="geometry">
            <mxRectangle x="-730" y="827" width="130" height="26" as="alternateBounds" />
          </mxGeometry>
        </mxCell>
        <mxCell id="TkOwXYtEwUb_VDzXQRJP-11" value="&lt;div&gt;MAP&lt;/div&gt;&lt;div&gt;CAMEL&lt;/div&gt;&lt;div&gt;SIP&lt;/div&gt;&lt;div&gt;...&lt;/div&gt;" style="rounded=1;whiteSpace=wrap;html=1;align=left;" vertex="1" parent="TkOwXYtEwUb_VDzXQRJP-7">
          <mxGeometry x="31" y="56" width="131" height="94" as="geometry" />
        </mxCell>
        <mxCell id="TkOwXYtEwUb_VDzXQRJP-9" value="&lt;div style=&quot;text-align: left;&quot;&gt;IP Gateways (IPGW)&lt;/div&gt;" style="swimlane;whiteSpace=wrap;html=1;" vertex="1" parent="1">
          <mxGeometry x="-185" y="827" width="200" height="200" as="geometry" />
        </mxCell>
        <mxCell id="TkOwXYtEwUb_VDzXQRJP-10" value="&lt;div&gt;&lt;span style=&quot;background-color: initial;&quot;&gt;SMPP&lt;/span&gt;&lt;/div&gt;&lt;div&gt;SOAP&lt;/div&gt;&lt;div&gt;DIAMETER&lt;/div&gt;&lt;div&gt;â€¦&lt;br&gt;&lt;/div&gt;" style="rounded=1;whiteSpace=wrap;html=1;align=left;" vertex="1" parent="TkOwXYtEwUb_VDzXQRJP-9">
          <mxGeometry x="34.5" y="53" width="131" height="94" as="geometry" />
        </mxCell>
        <mxCell id="TkOwXYtEwUb_VDzXQRJP-47" style="edgeStyle=none;curved=1;rounded=0;orthogonalLoop=1;jettySize=auto;html=1;exitX=0.5;exitY=0;exitDx=0;exitDy=0;entryX=0.5;entryY=1;entryDx=0;entryDy=0;fontSize=12;startSize=8;endSize=8;" edge="1" parent="1" source="TkOwXYtEwUb_VDzXQRJP-12" target="TkOwXYtEwUb_VDzXQRJP-42">
          <mxGeometry relative="1" as="geometry" />
        </mxCell>
        <mxCell id="TkOwXYtEwUb_VDzXQRJP-48" style="edgeStyle=none;curved=1;rounded=0;orthogonalLoop=1;jettySize=auto;html=1;exitX=0.5;exitY=0;exitDx=0;exitDy=0;entryX=0.5;entryY=1;entryDx=0;entryDy=0;fontSize=12;startSize=8;endSize=8;" edge="1" parent="1" source="TkOwXYtEwUb_VDzXQRJP-12" target="TkOwXYtEwUb_VDzXQRJP-41">
          <mxGeometry relative="1" as="geometry" />
        </mxCell>
        <mxCell id="TkOwXYtEwUb_VDzXQRJP-49" style="edgeStyle=none;curved=1;rounded=0;orthogonalLoop=1;jettySize=auto;html=1;exitX=0.5;exitY=0;exitDx=0;exitDy=0;entryX=0.5;entryY=1;entryDx=0;entryDy=0;fontSize=12;startSize=8;endSize=8;" edge="1" parent="1" source="TkOwXYtEwUb_VDzXQRJP-12" target="TkOwXYtEwUb_VDzXQRJP-40">
          <mxGeometry relative="1" as="geometry" />
        </mxCell>
        <mxCell id="TkOwXYtEwUb_VDzXQRJP-12" value="&lt;div&gt;&lt;b style=&quot;background-color: initial;&quot;&gt;&lt;font style=&quot;font-size: 13px;&quot;&gt;Graphical User Interface (Web based Control Panel)&lt;/font&gt;&lt;/b&gt;&lt;/div&gt;" style="rounded=1;whiteSpace=wrap;html=1;" vertex="1" parent="1">
          <mxGeometry x="-731" y="746" width="751" height="40" as="geometry" />
        </mxCell>
        <mxCell id="TkOwXYtEwUb_VDzXQRJP-43" style="edgeStyle=none;curved=1;rounded=0;orthogonalLoop=1;jettySize=auto;html=1;exitX=0.5;exitY=1;exitDx=0;exitDy=0;entryX=0.5;entryY=0;entryDx=0;entryDy=0;fontSize=12;startSize=8;endSize=8;" edge="1" parent="1" source="TkOwXYtEwUb_VDzXQRJP-13" target="TkOwXYtEwUb_VDzXQRJP-37">
          <mxGeometry relative="1" as="geometry" />
        </mxCell>
        <mxCell id="TkOwXYtEwUb_VDzXQRJP-44" style="edgeStyle=none;curved=1;rounded=0;orthogonalLoop=1;jettySize=auto;html=1;exitX=0.5;exitY=1;exitDx=0;exitDy=0;entryX=0.5;entryY=0;entryDx=0;entryDy=0;fontSize=12;startSize=8;endSize=8;" edge="1" parent="1" source="TkOwXYtEwUb_VDzXQRJP-13" target="TkOwXYtEwUb_VDzXQRJP-39">
          <mxGeometry relative="1" as="geometry" />
        </mxCell>
        <mxCell id="TkOwXYtEwUb_VDzXQRJP-45" style="edgeStyle=none;curved=1;rounded=0;orthogonalLoop=1;jettySize=auto;html=1;exitX=0.5;exitY=1;exitDx=0;exitDy=0;entryX=0.5;entryY=0;entryDx=0;entryDy=0;fontSize=12;startSize=8;endSize=8;" edge="1" parent="1" source="TkOwXYtEwUb_VDzXQRJP-13" target="TkOwXYtEwUb_VDzXQRJP-38">
          <mxGeometry relative="1" as="geometry" />
        </mxCell>
        <mxCell id="TkOwXYtEwUb_VDzXQRJP-13" value="&lt;b&gt;&lt;font style=&quot;font-size: 13px;&quot;&gt;Operation &amp;amp; Maintenance subsystem&lt;/font&gt;&lt;/b&gt;" style="rounded=1;whiteSpace=wrap;html=1;" vertex="1" parent="1">
          <mxGeometry x="-736" y="1078" width="751" height="40" as="geometry" />
        </mxCell>
        <mxCell id="TkOwXYtEwUb_VDzXQRJP-21" style="edgeStyle=none;curved=1;rounded=0;orthogonalLoop=1;jettySize=auto;html=1;exitX=0.16;exitY=0.55;exitDx=0;exitDy=0;exitPerimeter=0;entryX=1;entryY=0.5;entryDx=0;entryDy=0;fontSize=12;startSize=8;endSize=8;" edge="1" parent="1" source="TkOwXYtEwUb_VDzXQRJP-14" target="TkOwXYtEwUb_VDzXQRJP-18">
          <mxGeometry relative="1" as="geometry" />
        </mxCell>
        <mxCell id="TkOwXYtEwUb_VDzXQRJP-22" style="edgeStyle=none;curved=1;rounded=0;orthogonalLoop=1;jettySize=auto;html=1;exitX=0.16;exitY=0.55;exitDx=0;exitDy=0;exitPerimeter=0;entryX=1;entryY=0.5;entryDx=0;entryDy=0;fontSize=12;startSize=8;endSize=8;" edge="1" parent="1" source="TkOwXYtEwUb_VDzXQRJP-14" target="TkOwXYtEwUb_VDzXQRJP-19">
          <mxGeometry relative="1" as="geometry" />
        </mxCell>
        <mxCell id="TkOwXYtEwUb_VDzXQRJP-23" style="edgeStyle=none;curved=1;rounded=0;orthogonalLoop=1;jettySize=auto;html=1;exitX=0.16;exitY=0.55;exitDx=0;exitDy=0;exitPerimeter=0;entryX=1;entryY=0.5;entryDx=0;entryDy=0;fontSize=12;startSize=8;endSize=8;" edge="1" parent="1" source="TkOwXYtEwUb_VDzXQRJP-14" target="TkOwXYtEwUb_VDzXQRJP-20">
          <mxGeometry relative="1" as="geometry" />
        </mxCell>
        <mxCell id="TkOwXYtEwUb_VDzXQRJP-14" value="&lt;b&gt;&lt;font style=&quot;font-size: 14px;&quot;&gt;Core Network&lt;/font&gt;&lt;/b&gt;" style="ellipse;shape=cloud;whiteSpace=wrap;html=1;" vertex="1" parent="1">
          <mxGeometry x="-1017" y="823" width="175" height="208" as="geometry" />
        </mxCell>
        <mxCell id="TkOwXYtEwUb_VDzXQRJP-15" style="edgeStyle=none;curved=1;rounded=0;orthogonalLoop=1;jettySize=auto;html=1;exitX=0;exitY=0.5;exitDx=0;exitDy=0;fontSize=12;startSize=8;endSize=8;" edge="1" parent="1" source="TkOwXYtEwUb_VDzXQRJP-7">
          <mxGeometry relative="1" as="geometry">
            <mxPoint x="-858" y="930" as="targetPoint" />
          </mxGeometry>
        </mxCell>
        <mxCell id="TkOwXYtEwUb_VDzXQRJP-18" value="HLR" style="rounded=1;whiteSpace=wrap;html=1;" vertex="1" parent="1">
          <mxGeometry x="-1216" y="763" width="87" height="55" as="geometry" />
        </mxCell>
        <mxCell id="TkOwXYtEwUb_VDzXQRJP-19" value="MSC" style="rounded=1;whiteSpace=wrap;html=1;" vertex="1" parent="1">
          <mxGeometry x="-1216" y="913" width="87" height="55" as="geometry" />
        </mxCell>
        <mxCell id="TkOwXYtEwUb_VDzXQRJP-20" value="IN" style="rounded=1;whiteSpace=wrap;html=1;" vertex="1" parent="1">
          <mxGeometry x="-1216" y="1063" width="87" height="55" as="geometry" />
        </mxCell>
        <mxCell id="TkOwXYtEwUb_VDzXQRJP-33" style="edgeStyle=none;curved=1;rounded=0;orthogonalLoop=1;jettySize=auto;html=1;exitX=0.875;exitY=0.5;exitDx=0;exitDy=0;exitPerimeter=0;fontSize=12;startSize=8;endSize=8;" edge="1" parent="1" source="TkOwXYtEwUb_VDzXQRJP-29">
          <mxGeometry relative="1" as="geometry">
            <mxPoint x="354.7142508370539" y="788.4285670689176" as="targetPoint" />
          </mxGeometry>
        </mxCell>
        <mxCell id="TkOwXYtEwUb_VDzXQRJP-34" style="edgeStyle=none;curved=1;rounded=0;orthogonalLoop=1;jettySize=auto;html=1;exitX=0.875;exitY=0.5;exitDx=0;exitDy=0;exitPerimeter=0;entryX=0;entryY=0.5;entryDx=0;entryDy=0;fontSize=12;startSize=8;endSize=8;" edge="1" parent="1" source="TkOwXYtEwUb_VDzXQRJP-29" target="TkOwXYtEwUb_VDzXQRJP-31">
          <mxGeometry relative="1" as="geometry" />
        </mxCell>
        <mxCell id="TkOwXYtEwUb_VDzXQRJP-35" style="edgeStyle=none;curved=1;rounded=0;orthogonalLoop=1;jettySize=auto;html=1;exitX=0.875;exitY=0.5;exitDx=0;exitDy=0;exitPerimeter=0;entryX=0;entryY=0.5;entryDx=0;entryDy=0;fontSize=12;startSize=8;endSize=8;" edge="1" parent="1" source="TkOwXYtEwUb_VDzXQRJP-29" target="TkOwXYtEwUb_VDzXQRJP-32">
          <mxGeometry relative="1" as="geometry" />
        </mxCell>
        <mxCell id="TkOwXYtEwUb_VDzXQRJP-29" value="&lt;b&gt;&lt;font style=&quot;font-size: 14px;&quot;&gt;IT Network&lt;/font&gt;&lt;/b&gt;" style="ellipse;shape=cloud;whiteSpace=wrap;html=1;" vertex="1" parent="1">
          <mxGeometry x="104" y="813" width="175" height="208" as="geometry" />
        </mxCell>
        <mxCell id="TkOwXYtEwUb_VDzXQRJP-30" value="SMSC" style="rounded=1;whiteSpace=wrap;html=1;" vertex="1" parent="1">
          <mxGeometry x="358" y="739.5" width="87" height="55" as="geometry" />
        </mxCell>
        <mxCell id="TkOwXYtEwUb_VDzXQRJP-31" value="OCS" style="rounded=1;whiteSpace=wrap;html=1;" vertex="1" parent="1">
          <mxGeometry x="358" y="889.5" width="87" height="55" as="geometry" />
        </mxCell>
        <mxCell id="TkOwXYtEwUb_VDzXQRJP-32" value="VAS" style="rounded=1;whiteSpace=wrap;html=1;" vertex="1" parent="1">
          <mxGeometry x="358" y="1039.5" width="87" height="55" as="geometry" />
        </mxCell>
        <mxCell id="TkOwXYtEwUb_VDzXQRJP-36" style="edgeStyle=none;curved=1;rounded=0;orthogonalLoop=1;jettySize=auto;html=1;exitX=1;exitY=0.5;exitDx=0;exitDy=0;entryX=0.16;entryY=0.55;entryDx=0;entryDy=0;entryPerimeter=0;fontSize=12;startSize=8;endSize=8;" edge="1" parent="1" source="TkOwXYtEwUb_VDzXQRJP-9" target="TkOwXYtEwUb_VDzXQRJP-29">
          <mxGeometry relative="1" as="geometry" />
        </mxCell>
        <mxCell id="TkOwXYtEwUb_VDzXQRJP-37" value="OSS" style="rounded=1;whiteSpace=wrap;html=1;" vertex="1" parent="1">
          <mxGeometry x="-673.5" y="1243" width="87" height="55" as="geometry" />
        </mxCell>
        <mxCell id="TkOwXYtEwUb_VDzXQRJP-38" value="BSS" style="rounded=1;whiteSpace=wrap;html=1;" vertex="1" parent="1">
          <mxGeometry x="-128.5" y="1243" width="87" height="55" as="geometry" />
        </mxCell>
        <mxCell id="TkOwXYtEwUb_VDzXQRJP-39" value="NMS" style="rounded=1;whiteSpace=wrap;html=1;" vertex="1" parent="1">
          <mxGeometry x="-404.5" y="1243" width="87" height="55" as="geometry" />
        </mxCell>
        <mxCell id="TkOwXYtEwUb_VDzXQRJP-40" value="O&amp;amp;M" style="rounded=1;whiteSpace=wrap;html=1;" vertex="1" parent="1">
          <mxGeometry x="-673.5" y="622" width="87" height="55" as="geometry" />
        </mxCell>
        <mxCell id="TkOwXYtEwUb_VDzXQRJP-41" value="DEV" style="rounded=1;whiteSpace=wrap;html=1;" vertex="1" parent="1">
          <mxGeometry x="-128.5" y="622" width="87" height="55" as="geometry" />
        </mxCell>
        <mxCell id="TkOwXYtEwUb_VDzXQRJP-42" value="CC" style="rounded=1;whiteSpace=wrap;html=1;" vertex="1" parent="1">
          <mxGeometry x="-401" y="619" width="87" height="55" as="geometry" />
        </mxCell>
      </root>
    </mxGraphModel>
  </diagram>
</mxfile>
